<svg width="24" height="24" viewBox="0 0 24 24" fill="none" xmlns="http://www.w3.org/2000/svg">
<path d="M21.45 16.3215V4.55323C21.45 3.38323 20.4945 2.51548 19.3342 2.61298H19.2757C17.2282 2.78848 14.118 3.83173 12.3825 4.92373L12.2167 5.03098C11.934 5.20648 11.466 5.20648 11.1832 5.03098L10.9395 4.88473C9.20395 3.80248 6.10345 2.76898 4.05595 2.60323C2.8957 2.50573 1.94995 3.38323 1.94995 4.54348V16.3215C1.94995 17.2575 2.71045 18.135 3.64645 18.252L3.9292 18.291C6.04495 18.5737 9.3112 19.6462 11.1832 20.67L11.2222 20.6895C11.4855 20.8357 11.9047 20.8357 12.1582 20.6895C14.0302 19.656 17.3062 18.5737 19.4317 18.291L19.7535 18.252C20.6895 18.135 21.45 17.2575 21.45 16.3215Z" stroke="#2C2891" stroke-width="2" stroke-linecap="round" stroke-linejoin="round"/>
<path d="M11.7 5.35278V19.9778" stroke="#2C2891" stroke-width="2" stroke-linecap="round" stroke-linejoin="round"/>
<path d="M7.5563 8.27771H5.36255" stroke="#2C2891" stroke-width="2" stroke-linecap="round" stroke-linejoin="round"/>
<path d="M8.28755 11.2028H5.36255" stroke="#2C2891" stroke-width="2" stroke-linecap="round" stroke-linejoin="round"/>
</svg>
