<svg width="24" height="24" viewBox="0 0 24 24" fill="none" xmlns="http://www.w3.org/2000/svg">
<path d="M16.875 10.05H18.825C20.775 10.05 21.75 9.075 21.75 7.125V5.175C21.75 3.225 20.775 2.25 18.825 2.25H16.875C14.925 2.25 13.95 3.225 13.95 5.175V7.125C13.95 9.075 14.925 10.05 16.875 10.05Z" stroke="#2C2891" stroke-width="2" stroke-miterlimit="10" stroke-linecap="round" stroke-linejoin="round"/>
<path d="M5.175 21.75H7.125C9.075 21.75 10.05 20.775 10.05 18.825V16.875C10.05 14.925 9.075 13.95 7.125 13.95H5.175C3.225 13.95 2.25 14.925 2.25 16.875V18.825C2.25 20.775 3.225 21.75 5.175 21.75Z" stroke="#2C2891" stroke-width="2" stroke-miterlimit="10" stroke-linecap="round" stroke-linejoin="round"/>
<path d="M6.15 10.05C8.30391 10.05 10.05 8.30391 10.05 6.15C10.05 3.99609 8.30391 2.25 6.15 2.25C3.99609 2.25 2.25 3.99609 2.25 6.15C2.25 8.30391 3.99609 10.05 6.15 10.05Z" stroke="#2C2891" stroke-width="2" stroke-miterlimit="10" stroke-linecap="round" stroke-linejoin="round"/>
<path d="M17.85 21.75C20.0039 21.75 21.75 20.0039 21.75 17.85C21.75 15.6961 20.0039 13.95 17.85 13.95C15.6961 13.95 13.95 15.6961 13.95 17.85C13.95 20.0039 15.6961 21.75 17.85 21.75Z" stroke="#2C2891" stroke-width="2" stroke-miterlimit="10" stroke-linecap="round" stroke-linejoin="round"/>
</svg>
