<svg width="30" height="30" viewBox="0 0 30 30" fill="none" xmlns="http://www.w3.org/2000/svg">
<path d="M28.1006 6.34692C28.0638 6.19128 27.9878 6.04764 27.8799 5.92965C27.7719 5.81167 27.6355 5.72327 27.4837 5.67286L25.1166 4.88349L24.3262 2.5163C24.2757 2.36483 24.1872 2.22879 24.0693 2.12108C23.9514 2.01337 23.808 1.93757 23.6526 1.90085C23.4972 1.86413 23.3349 1.86772 23.1813 1.91128C23.0277 1.95484 22.8877 2.03692 22.7747 2.14974L19.7625 5.16192C17.1797 3.79159 14.1908 3.39359 11.3394 4.04028C8.48797 4.68696 5.96327 6.3354 4.22429 8.68589C2.48531 11.0364 1.64753 13.9329 1.86325 16.8487C2.07897 19.7646 3.33388 22.5063 5.39982 24.5753C7.46576 26.6443 10.2056 27.9032 13.1211 28.1233C16.0367 28.3433 18.9344 27.5098 21.2874 25.7743C23.6405 24.0388 25.2927 21.5165 25.9436 18.666C26.5945 15.8156 26.2009 12.8262 24.8344 10.2413L27.8503 7.22536C27.9635 7.11243 28.0459 6.97244 28.0897 6.81869C28.1335 6.66494 28.1373 6.50254 28.1006 6.34692ZM14.0625 26.25C12.4979 26.2562 10.9524 25.9062 9.54306 25.2267C8.13372 24.5472 6.89748 23.5558 5.92796 22.3278C4.95844 21.0998 4.28106 19.6673 3.94711 18.1387C3.61316 16.6101 3.63141 15.0256 4.00046 13.5052C4.36952 11.9847 5.07971 10.5681 6.07725 9.36276C7.07479 8.15738 8.33353 7.19479 9.75814 6.54788C11.1828 5.90097 12.7359 5.5867 14.2999 5.62888C15.864 5.67105 17.3979 6.06856 18.7856 6.7913C18.7912 6.8138 18.7912 6.8363 18.7987 6.8588L19.5487 9.12192L17.985 10.6875C16.6511 9.68936 14.9887 9.23353 13.3323 9.41181C11.6758 9.59009 10.1484 10.3892 9.05754 11.6484C7.96665 12.9076 7.39325 14.5332 7.45278 16.1981C7.51231 17.8631 8.20034 19.4436 9.37837 20.6217C10.5564 21.7997 12.137 22.4877 13.8019 22.5473C15.4668 22.6068 17.0925 22.0334 18.3516 20.9425C19.6108 19.8516 20.41 18.3242 20.5882 16.6678C20.7665 15.0114 20.3107 13.3489 19.3125 12.015L20.88 10.4475L23.1431 11.1975C23.1628 11.2041 23.1844 11.2022 23.205 11.2079C24.0277 12.7768 24.4306 14.5319 24.3746 16.3025C24.3186 18.0732 23.8057 19.7993 22.8855 21.3132C21.9654 22.827 20.6694 24.0772 19.1234 24.9422C17.5775 25.8073 15.834 26.2578 14.0625 26.25ZM18.75 15.9375C18.7531 16.9854 18.4061 18.0043 17.764 18.8324C17.1219 19.6605 16.2216 20.2504 15.206 20.5084C14.1904 20.7664 13.1177 20.6777 12.1582 20.2564C11.1988 19.8351 10.4076 19.1054 9.91021 18.183C9.41286 17.2607 9.23788 16.1987 9.41306 15.1656C9.58824 14.1324 10.1035 13.1874 10.8771 12.4806C11.6507 11.7738 12.6383 11.3457 13.683 11.2642C14.7277 11.1827 15.7696 11.4526 16.6434 12.031L14.5416 14.1329C14.3857 14.0884 14.2246 14.0648 14.0625 14.0625C13.6917 14.0625 13.3291 14.1725 13.0208 14.3785C12.7125 14.5846 12.4721 14.8774 12.3302 15.22C12.1883 15.5626 12.1512 15.9396 12.2235 16.3033C12.2959 16.6671 12.4744 17.0012 12.7367 17.2634C12.9989 17.5256 13.333 17.7042 13.6967 17.7765C14.0604 17.8489 14.4374 17.8117 14.78 17.6698C15.1226 17.5279 15.4155 17.2876 15.6215 16.9792C15.8275 16.6709 15.9375 16.3084 15.9375 15.9375C15.9353 15.7755 15.9116 15.6144 15.8672 15.4585L17.9691 13.3566C18.4781 14.1211 18.7498 15.0191 18.75 15.9375ZM23.1834 9.24005L21.3666 8.63349L20.7609 6.81567L23.0269 4.54786L23.4862 5.9213C23.5322 6.05942 23.6096 6.18496 23.7124 6.28796C23.8153 6.39096 23.9407 6.4686 24.0787 6.51474L25.4512 6.97224L23.1834 9.24005Z" fill="#2C2891"/>
</svg>
