<svg width="30" height="30" viewBox="0 0 30 30" fill="none" xmlns="http://www.w3.org/2000/svg">
<path d="M22.5723 25.7346C21.4267 23.754 19.6613 22.3338 17.6009 21.6606C18.6201 21.0539 19.4119 20.1294 19.8547 19.0292C20.2976 17.929 20.3671 16.7137 20.0524 15.5702C19.7378 14.4267 19.0565 13.418 18.1132 12.6991C17.1698 11.9803 16.0166 11.5909 14.8306 11.5909C13.6445 11.5909 12.4913 11.9803 11.5479 12.6991C10.6046 13.418 9.92327 14.4267 9.60865 15.5702C9.29404 16.7137 9.3635 17.929 9.80637 19.0292C10.2492 20.1294 11.041 21.0539 12.0602 21.6606C9.99985 22.3331 8.23441 23.7532 7.08879 25.7346C7.04678 25.8031 7.01891 25.8793 7.00683 25.9587C6.99476 26.0382 6.99872 26.1192 7.01847 26.1971C7.03823 26.275 7.07339 26.3482 7.12188 26.4123C7.17037 26.4763 7.2312 26.5301 7.30078 26.5703C7.37037 26.6105 7.4473 26.6363 7.52703 26.6463C7.60677 26.6563 7.6877 26.6502 7.76504 26.6284C7.84239 26.6066 7.91458 26.5695 7.97737 26.5193C8.04015 26.4692 8.09225 26.407 8.1306 26.3363C9.54777 23.8871 12.0526 22.4248 14.8306 22.4248C17.6085 22.4248 20.1133 23.8871 21.5305 26.3363C21.5688 26.407 21.621 26.4692 21.6837 26.5193C21.7465 26.5695 21.8187 26.6066 21.8961 26.6284C21.9734 26.6502 22.0543 26.6563 22.1341 26.6463C22.2138 26.6363 22.2907 26.6105 22.3603 26.5703C22.4299 26.5301 22.4907 26.4763 22.5392 26.4123C22.5877 26.3482 22.6229 26.275 22.6426 26.1971C22.6624 26.1192 22.6663 26.0382 22.6543 25.9587C22.6422 25.8793 22.6143 25.8031 22.5723 25.7346ZM10.6182 17.0089C10.6182 16.1758 10.8652 15.3614 11.3281 14.6686C11.7909 13.9759 12.4488 13.436 13.2185 13.1172C13.9883 12.7984 14.8352 12.7149 15.6523 12.8775C16.4695 13.04 17.22 13.4412 17.8092 14.0303C18.3983 14.6194 18.7995 15.37 18.962 16.1871C19.1245 17.0042 19.0411 17.8512 18.7223 18.6209C18.4035 19.3906 17.8635 20.0485 17.1708 20.5114C16.4781 20.9742 15.6637 21.2213 14.8306 21.2213C13.7137 21.2201 12.643 20.7759 11.8533 19.9862C11.0635 19.1965 10.6194 18.1257 10.6182 17.0089Z" fill="#2C2891" stroke="#2C2891" stroke-width="0.5"/>
<path d="M7 21H6C4.34315 21 3 19.6569 3 18V7C3 5.34315 4.34315 4 6 4H24C25.6569 4 27 5.34315 27 7V18C27 19.6569 25.6569 21 24 21H23" stroke="#2C2891" stroke-width="2" stroke-linecap="round"/>
</svg>
